<svg xmlns="http://www.w3.org/2000/svg" width="81" height="7" viewBox="0 0 81 7">
  <defs>
    <style>
      .cls-1 {
        fill: #74BD4C;
        fill-rule: evenodd;
        opacity: 0.5
      }
    </style>
  </defs>
  <path id="waves" class="cls-1" d="M747.541,3794l-5.007-5.16-5.007,5.16-5.007-5.16-5.006,5.16-5.007-5.16L717.5,3794l-5.007-5.16-5.007,5.16-5.006-5.16-5.007,5.16-5.007-5.16-5.007,5.16-5.006-5.16-4.562,4.7-0.891-.92,5.453-5.62,5.006,5.16,5.007-5.16,5.007,5.16,5.007-5.16,5.006,5.16,5.007-5.16,5.007,5.16,5.007-5.16,5.007,5.16,5.006-5.16,5.007,5.16,5.007-5.16,5.007,5.16,5.006-5.16,5.453,5.62-0.892.92-4.561-4.7Z" transform="translate(-677 -3787)"/>
</svg>
